<svg width="294" height="288" viewBox="0 0 294 288" fill="none" xmlns="http://www.w3.org/2000/svg">
<path d="M99.6903 76.9766H43.4584C41.1869 76.9766 39.7489 74.5509 40.9016 72.5937C63.5174 34.191 97.3325 20.864 115.232 18.3827C117.281 18.0987 118.814 20.0527 118.226 22.0353L102.566 74.8297C102.189 76.1031 101.019 76.9766 99.6903 76.9766Z" fill="#E84736" stroke="#E84736"/>
<path d="M182.306 75.4667L166.374 21.5389C165.73 19.3606 167.649 17.2942 169.852 17.8451C213.089 28.6537 235.451 57.3073 242.902 73.7706C243.755 75.6546 242.315 77.6785 240.247 77.6763L185.18 77.6167C183.851 77.6153 182.682 76.7405 182.306 75.4667Z" fill="#E84736" stroke="#E84736"/>
<path d="M209.02 152.964L254.855 120.388C256.706 119.072 259.284 120.216 259.478 122.479C263.29 166.883 243.448 197.336 230.295 209.728C228.79 211.146 226.408 210.441 225.739 208.485L207.919 156.38C207.489 155.123 207.937 153.733 209.02 152.964Z" fill="#E84736" stroke="#E84736"/>
<path d="M144.105 203.315L189.105 237.035C190.923 238.397 190.619 241.2 188.523 242.075C147.396 259.246 112.344 249.634 96.5314 240.886C94.7219 239.885 94.6667 237.402 96.3262 236.168L140.516 203.309C141.582 202.516 143.042 202.519 144.105 203.315Z" fill="#E84736" stroke="#E84736"/>
<path d="M75.1805 155.197L57.6196 208.617C56.9102 210.775 54.1568 211.383 52.6574 209.677C23.2383 176.2 21.138 139.914 24.3709 122.134C24.7408 120.1 27.0758 119.253 28.7756 120.431L74.0392 151.795C75.131 152.551 75.5953 153.936 75.1805 155.197Z" fill="#E84736" stroke="#E84736"/>
<path d="M176.31 82.4766H108.049C106.29 82.4766 104.737 83.6261 104.224 85.3088L84.495 149.94C84.0052 151.545 84.5686 153.284 85.9059 154.297L140.481 195.624C141.923 196.717 143.92 196.705 145.349 195.594L198.503 154.302C199.814 153.284 200.36 151.562 199.875 149.975L180.136 85.3088C179.622 83.6261 178.069 82.4766 176.31 82.4766Z" fill="#E84736" stroke="#E84736"/>
</svg>
